<?xml version="1.0" encoding="UTF-8"?>
<svg version="1.1" id="C_logo" xmlns="http://www.w3.org/2000/svg"
     xmlns:xlink="http://www.w3.org/1999/xlink" x="0px" y="0px"
     viewBox="0 0 64 64" xml:space="preserve">
  <defs>
    <linearGradient id="grad" x1="0%" y1="0%" x2="100%" y2="100%">
      <stop offset="0%" style="stop-color:#2D77E5;stop-opacity:1"/>
      <stop offset="100%" style="stop-color:#074DAD;stop-opacity:1"/>
    </linearGradient>
  </defs>
  <circle cx="32" cy="32" r="30" fill="url(#grad)"/>
  <path d="M42.5,42.8c-2.2,1.5-5,2.3-8.3,2.3c-6.6,0-11.9-4.4-11.9-11.9c0-7.6,5.3-12.4,12.4-12.4c3,0,5.7,0.8,7.7,2.1
  l-1.9,4.1c-1.6-1-3.6-1.6-5.8-1.6c-4.3,0-7.2,2.8-7.2,7.6c0,4.7,2.9,7.5,7.1,7.5c2.2,0,4.4-0.7,6.1-1.8L42.5,42.8z" 
  fill="#FFFFFF"/>
</svg> 